<svg width="3840" height="860" viewBox="0 0 3840 860" fill="none" xmlns="http://www.w3.org/2000/svg">
<path fill-rule="evenodd" clip-rule="evenodd" d="M0 429.501V859.002L952.25 858.752L1904.5 858.501V429.501V0.501L952.25 0.25L0 0V429.501ZM243 116.364C243 117.401 293.058 437.653 293.353 438.501C293.908 440.101 293.797 440.774 319.992 277.001C333.759 190.926 345.251 119.488 345.53 118.251L346.038 116.001H417.519H489V403.201C489 561.161 489.37 689.973 489.823 689.451C490.412 688.77 554.715 262.2 575.175 123.245L576.243 115.988L651.343 116.245L726.443 116.501L768.046 392.742C790.928 544.675 809.953 669.287 810.324 669.659C810.696 670.03 811 545.584 811 393.112V115.89L881.25 116.278C957.93 116.702 955.436 116.529 978.495 122.999C1020.21 134.706 1059.4 166.201 1083.37 207.289C1086.19 212.122 1088.63 215.448 1088.8 214.68C1088.96 213.912 1086.37 191.907 1083.05 165.782C1079.72 139.656 1077 117.767 1077 117.14C1077 116.301 1091.99 116.001 1133.89 116.001H1190.78L1191.3 118.251C1191.58 119.488 1203.21 204.978 1217.13 308.227C1231.06 411.476 1242.73 495.626 1243.08 495.227C1243.43 494.828 1255.06 411.026 1268.92 309.001C1282.79 206.976 1294.38 121.814 1294.69 119.751L1295.26 116.001H1454.13H1613V173.001V230.001H1562.5H1512V301.001V372.001H1562.5H1613V429.001V486.001H1562.5H1512V558.501V631.001H1562.5H1613V687.001V743.001H1506.5H1400L1399.92 459.751C1399.88 298.301 1399.47 177.576 1398.97 179.001C1398.5 180.376 1395.81 196.126 1393 214.001C1388.03 245.632 1385.92 258.924 1368.99 365.501C1364.54 393.551 1358.46 431.801 1355.49 450.501C1352.52 469.201 1346.23 508.801 1341.51 538.501C1336.79 568.201 1331.15 603.751 1328.97 617.501C1315.88 700.302 1309.09 742.249 1308.69 742.644C1308.44 742.891 1278.8 743.369 1242.81 743.707L1177.39 744.321L1145.11 550.411C1127.36 443.76 1112.47 355.151 1112.01 353.501C1111.44 351.437 1111.15 354.244 1111.07 362.501C1110.81 391.815 1102.62 420.621 1086.41 449.252C1076.52 466.711 1060.8 485.981 1047.37 497.087L1043.25 500.501L1078.93 621.501L1114.61 742.501L1059.61 742.76C1029.37 742.902 1004.31 742.677 1003.93 742.26C1003.55 741.842 991.207 695.376 976.504 639.001C961.802 582.626 949.608 536.323 949.407 536.106C949.207 535.888 943.183 536.515 936.021 537.498L923 539.286V641.144V743.001H815.638H708.276L706.542 729.751C705.587 722.463 702.713 700.976 700.153 682.001L695.499 647.501L651.361 647.241L607.222 646.98L606.695 649.241C606.405 650.484 603.337 672.088 599.875 697.251L593.582 743.001H484.294H375.006L374.753 593.094L374.5 443.187L349.574 591.344C335.864 672.83 324.449 740.289 324.207 741.251C323.8 742.869 321.509 743.001 293.883 743.001C274.366 743.001 264 742.649 264 741.988C264 741.128 226.985 524.296 216.477 463.6C214.582 452.655 212.8 443.467 212.516 443.184C212.232 442.9 212 510.243 212 592.834V743.001H155.5H99V429.501V116.001H171C210.6 116.001 243 116.164 243 116.364ZM1745.25 373.251L1745.5 630.501L1793.75 630.761L1842 631.02V687.011V743.001H1738H1634V429.501V116.001H1689.5H1745L1745.25 373.251ZM923 328.146V429.291L929.75 428.723C944.014 427.522 957.28 420.69 969.988 408.001C982.058 395.948 989.605 382.225 994.486 363.45C1000.83 339.06 1000.19 306.079 992.921 282.455C988.177 267.039 978.264 251.424 968.083 243.329C957.199 234.675 937.44 227.001 926.042 227.001H923V328.146ZM650.642 285.001C650.257 287.476 643.437 346.201 635.488 415.501C627.539 484.801 620.813 542.738 620.542 544.251L620.05 547.001H652.037H684.024L683.476 543.251C683.175 541.189 676.205 483.026 667.988 414.001C659.771 344.976 652.665 286.701 652.195 284.501L651.343 280.501L650.642 285.001Z" fill="#E50B14"/>
<path fill-rule="evenodd" clip-rule="evenodd" d="M2023 16.5V33H2931.5H3840V16.5V0H2931.5H2023V16.5ZM2119 111.052C2071.3 116.787 2042.2 139.422 2030.4 179.97C2025.14 198.063 2024.74 202.952 2024.26 256.299C2023.6 329.626 2025.49 345.516 2037.75 369.342C2048.83 390.883 2060.35 402.381 2098.5 429.966C2109.5 437.92 2120.35 445.794 2122.61 447.464C2124.86 449.134 2130.49 453.226 2135.11 456.558C2182.39 490.685 2187.24 494.701 2194.21 505.458C2196.33 508.736 2199.07 514.586 2200.28 518.458C2202.47 525.422 2202.5 526.211 2202.5 589.5V653.5L2200.17 659.282C2195.66 670.439 2188.78 677.082 2177.5 681.173C2172.43 683.01 2168.75 683.416 2153.79 683.785C2133.28 684.29 2125.21 683.247 2116.31 678.936C2104.79 673.35 2098.23 663.185 2096.02 647.5C2095.48 643.65 2095.03 619.462 2095.02 593.75L2095 547H2059.5H2024L2024 593.75C2024 654.075 2025.2 667.217 2032.56 687.851C2043.75 719.225 2067.47 738.816 2103.58 746.508C2122.3 750.494 2170.93 751.097 2190.5 747.586C2239.88 738.725 2265.7 712.514 2274.78 662.012C2276.29 653.674 2276.5 644.48 2276.5 587.5C2276.5 539.079 2276.17 520.332 2275.2 514C2270.16 481.156 2257.05 457.663 2231.87 436.334C2227.27 432.432 2201.23 413.158 2174 393.503C2146.77 373.847 2121.71 355.325 2118.3 352.342C2106.95 342.411 2100.01 329.204 2097.99 313.671C2096.76 304.184 2096.77 220.363 2098 211.828C2100.2 196.614 2107 186.321 2118.44 180.886C2127.65 176.507 2133.21 175.773 2153.85 176.216C2170.09 176.564 2173.21 176.897 2178 178.8C2190.31 183.691 2197.22 190.888 2201.21 202.961C2203.22 209.045 2203.39 211.951 2203.77 244.75L2204.18 280H2239.7H2275.22L2274.69 241.25C2274.13 200.976 2273.73 196.684 2269 179.159C2267.87 174.947 2264.7 167 2261.97 161.5C2248.71 134.781 2225.95 118.965 2191.37 112.435C2181.04 110.484 2131.59 109.539 2119 111.052ZM3389.08 111.153C3367.31 113.7 3344.77 122.205 3331.42 132.906C3313.87 146.976 3302.23 168.867 3297.33 197C3295.59 206.958 3295.5 218.943 3295.5 429C3295.5 606.052 3295.76 652.206 3296.8 659C3304.06 706.295 3327.61 733.898 3369.85 744.613C3385.52 748.589 3395 749.216 3432.08 748.731C3462.87 748.329 3467.56 748.048 3476.5 746.073C3522.74 735.863 3548.6 706.511 3554.98 657C3555.76 650.993 3555.98 582.81 3555.76 424.5L3555.45 200.5L3553.2 190.74C3550.12 177.365 3545.79 165.812 3540.41 156.618C3535.52 148.27 3524.57 136.059 3516.96 130.473C3506.23 122.594 3489.03 115.785 3471.37 112.42C3460.82 110.409 3403.05 109.519 3389.08 111.153ZM3686 110.613C3633.77 116.62 3604.77 138.576 3592.53 181.388C3587.37 199.427 3586.82 208.874 3587.26 271.907C3587.65 325.864 3587.8 330.086 3589.76 338.777C3595.3 363.339 3603.75 379.611 3619.6 396.218C3629.56 406.646 3637.94 413.351 3669.61 436.195C3673.95 439.327 3688.07 449.578 3701 458.974C3713.93 468.371 3728.1 478.606 3732.5 481.719C3751.4 495.089 3761.57 509.01 3764.51 525.536C3766.27 535.387 3766.63 639.443 3764.95 650C3762.85 663.163 3756.02 673.421 3745.98 678.512C3736.72 683.202 3729.43 684.224 3708.5 683.766C3691.93 683.403 3688.78 683.069 3683.9 681.157C3671.39 676.264 3664.66 669.457 3660.62 657.599C3658.63 651.782 3658.52 649.087 3658.22 599.25L3657.9 547H3622.38H3586.85L3587.27 603.25C3587.65 656.167 3587.81 660.063 3589.81 669C3596.96 700.861 3609.77 720.477 3632 733.607C3653.69 746.419 3677.1 750.704 3720 749.714C3751.81 748.98 3767.29 746.171 3784.84 737.95C3810.42 725.972 3826.68 705.504 3834.48 675.473C3838.78 658.913 3839.15 650.748 3838.76 581C3838.44 524.133 3838.16 514.354 3836.67 506.802C3831.87 482.491 3822.87 465.111 3806.04 447.624C3794.21 435.33 3789.96 432.024 3735.03 392.434C3680.46 353.106 3672.74 346.506 3666.63 334C3660.08 320.579 3659.87 318.057 3660.21 259.579L3660.51 207.5L3663.1 200.843C3666.25 192.731 3670.51 187.174 3676.75 183.042C3685.4 177.311 3690.06 176.497 3714 176.528C3733.94 176.554 3735.91 176.72 3741.15 178.81C3752.18 183.219 3758.75 189.781 3763.21 200.855C3765.4 206.31 3765.49 207.734 3765.8 243.25L3766.11 280H3801.64H3837.16L3836.73 239.25C3836.28 195.406 3835.81 190.898 3829.97 174C3820.38 146.279 3800.57 126.561 3773.11 117.409C3756.47 111.866 3747.64 110.775 3717 110.477C3701.88 110.33 3687.92 110.391 3686 110.613ZM2291 149V183H2338H2385V463.5V744H2421.5H2458V463.5V183H2505H2552V149V115H2421.5H2291V149ZM2579 382.428C2579 566.232 2579.33 652.301 2580.07 657.678C2586.13 702.178 2607.81 730.342 2645.32 742.439C2662.67 748.035 2667.46 748.501 2707.5 748.489C2742.19 748.479 2745.14 748.337 2754.75 746.22C2778.16 741.064 2792.57 733.647 2806.5 719.583C2820.73 705.219 2828.78 688.399 2833.3 663.559L2835.5 651.5V383.5V115.5L2799.27 115.238L2763.04 114.975L2762.71 380.238C2762.46 579.635 2762.09 646.704 2761.2 650.349C2757.8 664.343 2749.68 674.549 2738.57 678.8C2725.92 683.641 2692.66 684.368 2679 680.102C2663.42 675.237 2654.78 664.945 2652.06 648C2651.35 643.6 2651.01 556.447 2651.01 378.25L2651 115H2615H2579V382.428ZM2880 429.554V744.108L2952.75 743.746C3016.17 743.43 3026.72 743.163 3035 741.662C3066.46 735.961 3086.29 726.746 3103.07 710.036C3120.54 692.638 3129.78 673.099 3135.7 641C3137.32 632.199 3137.47 617.234 3137.78 437.5C3138 305.279 3137.76 239.838 3137.04 232C3131.48 172.235 3105.18 136.923 3055.46 122.516C3032.92 115.984 3018.25 115.02 2941.25 115.009L2880 115V429.554ZM3180.67 115.667C3180.3 116.033 3180 257.558 3180 430.167V744H3216.5H3253V429.5V115H3217.17C3197.46 115 3181.03 115.3 3180.67 115.667ZM3453.5 178.317C3462 180.708 3465.77 182.705 3470.97 187.564C3476.44 192.682 3480.16 199.573 3481.89 207.799C3482.69 211.603 3483 274.407 3482.99 430.299C3482.98 612.981 3482.75 648.333 3481.58 652.744C3477.53 667.974 3469.06 676.556 3453.98 680.71C3448.67 682.171 3443.52 682.494 3425.5 682.497C3405.58 682.5 3402.84 682.291 3396.5 680.292C3380.37 675.204 3371.81 665.13 3369.06 648C3368.36 643.629 3368.01 572.011 3368.01 429.338C3368 195.647 3367.67 208.023 3374.18 195.819C3379.81 185.248 3390.3 178.93 3405.4 177.017C3415.54 175.732 3447.37 176.592 3453.5 178.317ZM3014.12 183.465C3040.65 188.102 3056.54 203.169 3062.64 229.5C3064.42 237.147 3064.5 246.06 3064.5 431.5V625.5L3062.24 633.299C3054.53 659.888 3037.38 673.618 3007.73 676.924C3002.42 677.516 2987.71 678 2975.04 678H2952V430V182H2978.87C2997.98 182 3008.16 182.423 3014.12 183.465ZM2023 841.5V858H2931.5H3840V841.5V825H2931.5H2023V841.5Z" fill="white"/>
</svg>
